<svg xmlns="http://www.w3.org/2000/svg" viewBox="0 0 483.67 150.29"><defs><style>.cls-1{fill:#99c221;}.cls-2{fill:#bad739;}.cls-3{fill:#693;}</style></defs><title>logo-menu</title><g id="Layer_2" data-name="Layer 2"><g id="Layer_1-2" data-name="Layer 1"><path class="cls-1" d="M99.44,39.49,90.5,10.54A3.54,3.54,0,0,0,88,8.11L56.12.06a2.15,2.15,0,0,0-2.56,1.47L45.42,25.76a2.76,2.76,0,0,0,1.78,3.48l49.16,13.9C98.42,43.7,100.12,41.68,99.44,39.49ZM82.62,28.87l-21.27-6c-2.25-.59-4.08-3.25-4.08-5.91s1.83-4.37,4.08-3.8l21.27,5.79c2.37.59,4.31,3.33,4.31,6.08S85,29.5,82.62,28.87Z"/><polygon class="cls-1" points="85.99 61.77 0 38.59 0 121.6 85.99 150.29 116.65 95.33 85.99 61.77"/><polygon class="cls-2" points="85.99 150.29 147.31 124.76 147.31 40.37 85.99 61.77 85.99 150.29"/><path class="cls-1" d="M181.44,42a2.35,2.35,0,0,1,2.66-2.66h2.57A2.35,2.35,0,0,1,189.33,42V89.26h22.86a2.38,2.38,0,0,1,2.65,2.66v1.61a2.37,2.37,0,0,1-2.65,2.65H184.1a2.35,2.35,0,0,1-2.66-2.65Z"/><path class="cls-1" d="M221.93,44.67V42a2.35,2.35,0,0,1,2.66-2.66h2.73A2.39,2.39,0,0,1,230,42v2.65a2.42,2.42,0,0,1-2.66,2.66h-2.73A2.39,2.39,0,0,1,221.93,44.67ZM222,58.11a2.38,2.38,0,0,1,2.66-2.65h2.49a2.35,2.35,0,0,1,2.66,2.65V93.53a2.35,2.35,0,0,1-2.66,2.65h-2.49A2.38,2.38,0,0,1,222,93.53Z"/><path class="cls-1" d="M246.24,104.55a23.37,23.37,0,0,0,8.85,1.77c6.92,0,12.8-3.14,12.8-11.43V91.35a16,16,0,0,1,.24-2.57H268c-2.34,4.26-6.2,6.92-12.07,6.92-11.43,0-18.35-9-18.35-20.93,0-11.59,6.43-20.28,18.18-20.28,10.07,0,12.72,6.84,12.72,6.84h.16a4.43,4.43,0,0,1-.16-1.28V57.71c0-1.37.89-2.25,2.66-2.25H273a2.34,2.34,0,0,1,2.65,2.65V94.49c0,13.44-10.3,18.59-20.2,18.59a30.68,30.68,0,0,1-11.83-2.25c-1.69-.73-2.09-1.85-1.37-3.54l.57-1.37C243.58,104.31,244.55,103.91,246.24,104.55ZM268.05,75c0-10.7-5.23-13.76-11.27-13.76-7.32,0-11.27,5.15-11.27,13.2,0,8.77,4.43,14.49,11.75,14.49C262.9,88.94,268.05,85.56,268.05,75Z"/><path class="cls-1" d="M285.28,42a2.35,2.35,0,0,1,2.65-2.66h2.5c1.69,0,2.57.89,2.57,2.66V60.45a23,23,0,0,1-.24,3.38h.16a16.86,16.86,0,0,1,15.21-9.34c9.58,0,14,5.23,14,15.62V93.53a2.38,2.38,0,0,1-2.66,2.65H317a2.35,2.35,0,0,1-2.66-2.65V71.88c0-5.72-1.21-10.22-7.73-10.22-7.8,0-13.6,6.43-13.6,15.21V93.53a2.32,2.32,0,0,1-2.57,2.65h-2.5a2.34,2.34,0,0,1-2.65-2.65Z"/><path class="cls-1" d="M332.74,62.22h-2.81a2.36,2.36,0,0,1-2.58-2.66v-1A2.39,2.39,0,0,1,330,55.86h2.89V46.93a2.39,2.39,0,0,1,2.66-2.66h2.33a2.35,2.35,0,0,1,2.66,2.66v8.93h7.08a2.39,2.39,0,0,1,2.66,2.66v1a2.36,2.36,0,0,1-2.58,2.66h-7.16V80.33c0,7.72,4.75,8.93,7.73,9.17,2.09.16,2.81.81,2.81,2.66v1.69c0,1.85-1,2.65-3.22,2.65-8,0-15.13-4.66-15.13-15Z"/><path class="cls-3" d="M359.1,42a2.35,2.35,0,0,1,2.66-2.66H379c9.58,0,16.42,5.31,16.42,14.49,0,5.55-2.66,10-7,12.23v.16c6,1.77,9.33,7.41,9.33,13.76,0,10.71-8.29,16.18-18.35,16.18H361.76a2.35,2.35,0,0,1-2.66-2.65ZM379,63.26c5.15,0,8.37-3.62,8.37-8.61s-3.14-8.37-8.53-8.37H367v17Zm.81,26c6.11,0,9.81-3.86,9.81-9.66s-3.86-9.74-9.81-9.74H367v19.4Z"/><path class="cls-3" d="M425.89,54.49c12.15,0,22,8.94,22,21.25s-9.82,21.41-22,21.41S404,88.13,404,75.74,413.74,54.49,425.89,54.49Zm0,35.9c7.73,0,14-6.12,14-14.65s-6.27-14.49-14-14.49-14,6-14,14.49S418.25,90.39,425.89,90.39Z"/><path class="cls-3" d="M461.7,75.26,450.59,58.68c-1.13-1.85-.4-3.22,1.77-3.22h3.06a3.09,3.09,0,0,1,3.06,1.85l6.6,10.54,1.28,2.42h.16s.81-1.37,1.37-2.42l6.52-10.54a3.27,3.27,0,0,1,3.14-1.85h3c2.17,0,3,1.37,1.77,3.22l-11,16.58L483.1,93c1.21,1.85.41,3.22-1.77,3.22h-2.89a3.27,3.27,0,0,1-3.14-1.85l-7.49-11.75c-.64-1-1.29-2.25-1.29-2.25h-.16a17.73,17.73,0,0,1-1.2,2.25l-7.49,11.75a3.27,3.27,0,0,1-3.14,1.85h-2.89c-2.18,0-3-1.37-1.77-3.22Z"/><path class="cls-3" d="M181.57,123.82a.75.75,0,0,1,.85-.85h5.22c5.58,0,9.29,3.35,9.29,9.13s-3.71,9.19-9.29,9.19h-5.22a.76.76,0,0,1-.85-.86Zm5.89,15.24c4.12,0,6.82-2.44,6.82-7s-2.72-6.9-6.82-6.9h-3.35v13.86Z"/><path class="cls-3" d="M199.89,124.68v-.86a.76.76,0,0,1,.86-.85h.88a.76.76,0,0,1,.86.85v.86a.78.78,0,0,1-.86.86h-.88A.77.77,0,0,1,199.89,124.68Zm0,4.33a.76.76,0,0,1,.86-.85h.8a.76.76,0,0,1,.86.85v11.42a.76.76,0,0,1-.86.86h-.8a.77.77,0,0,1-.86-.86Z"/><path class="cls-3" d="M211.86,127.85c3.63,0,5.66,2.59,5.66,6.25a.88.88,0,0,1-.89.88h-8.77a4.44,4.44,0,0,0,4.55,4.44,5.42,5.42,0,0,0,3.14-1,.75.75,0,0,1,1.16.29l.24.39a.77.77,0,0,1-.26,1.14,7.86,7.86,0,0,1-4.44,1.4,6.68,6.68,0,0,1-6.95-6.88C205.3,130.54,208.12,127.85,211.86,127.85Zm3.14,5.47c-.08-2.31-1.45-3.5-3.19-3.5a3.86,3.86,0,0,0-3.84,3.5Z"/><path class="cls-3" d="M220.68,130.34h-.91a.76.76,0,0,1-.83-.86v-.34a.77.77,0,0,1,.86-.85h.93v-2.88a.77.77,0,0,1,.86-.86h.75a.76.76,0,0,1,.86.86v2.88h2.28a.77.77,0,0,1,.86.85v.34a.76.76,0,0,1-.83.86H223.2v5.83c0,2.5,1.53,2.89,2.49,3,.67.05.91.26.91.86v.54c0,.6-.34.86-1,.86a4.52,4.52,0,0,1-4.88-4.83Z"/><path class="cls-3" d="M236,133.19h.67v-.34a2.55,2.55,0,0,0-2.85-2.88,6.19,6.19,0,0,0-3,.83.8.8,0,0,1-1.17-.31l-.21-.36a.78.78,0,0,1,.29-1.17,8.65,8.65,0,0,1,4.25-1.11c3.27,0,5.17,1.81,5.17,5.13v7.45a.77.77,0,0,1-.86.86h-.65a.77.77,0,0,1-.85-.86v-.78a4,4,0,0,1,.07-.8h0a4.87,4.87,0,0,1-4.28,2.75c-2.31,0-4.41-1.43-4.41-3.89C228.15,133.63,233.26,133.19,236,133.19Zm-2.86,6.41c2.21,0,3.56-2.23,3.56-4.18v-.57H236c-1.84,0-5.32.16-5.32,2.65A2.2,2.2,0,0,0,233.13,139.6Z"/><path class="cls-3" d="M243,139.29a.9.9,0,0,1,1-.73h.8c.65,0,.93.42.68,1l-1.77,4.31a1,1,0,0,1-1,.64h-.29c-.62,0-.88-.36-.72-1Z"/><path class="cls-3" d="M254.83,123.82a.75.75,0,0,1,.86-.85h.8a.75.75,0,0,1,.83.85V133h1.89l3.2-4.26a1,1,0,0,1,1-.54h1c.7,0,.93.46.52,1l-3.64,4.74V134l4.21,6.25c.36.6.13,1-.57,1h-1a1.06,1.06,0,0,1-1-.6l-3.58-5.55h-1.95v5.29a.75.75,0,0,1-.83.86h-.8a.76.76,0,0,1-.86-.86Z"/><path class="cls-3" d="M268.82,130.34h-.91a.76.76,0,0,1-.83-.86v-.34a.76.76,0,0,1,.86-.85h.93v-2.88a.77.77,0,0,1,.86-.86h.75a.76.76,0,0,1,.85.86v2.88h2.29a.76.76,0,0,1,.85.85v.34a.76.76,0,0,1-.83.86h-2.31v5.83c0,2.5,1.53,2.89,2.49,3,.68.05.91.26.91.86v.54c0,.6-.33.86-1,.86a4.52,4.52,0,0,1-4.88-4.83Z"/><path class="cls-3" d="M282.75,127.85a6.88,6.88,0,1,1-7.05,6.85A6.85,6.85,0,0,1,282.75,127.85Zm0,11.57a4.7,4.7,0,1,0-4.51-4.72A4.54,4.54,0,0,0,282.75,139.42Zm-.59-14.14,1-1.74a1.06,1.06,0,0,1,1-.6H285c.73,0,.91.47.47,1l-1.28,1.74a1.2,1.2,0,0,1-1,.52h-.44C282.08,126.24,281.85,125.8,282.16,125.28Z"/><path class="cls-3" d="M292.7,129a.76.76,0,0,1,.85-.85h.73a.76.76,0,0,1,.86.85v1.51a6.11,6.11,0,0,1-.08,1h.05c.57-1.73,2.05-3.45,4-3.45.6,0,.83.29.83.86v.73c0,.57-.33.85-.93.85-2.57,0-3.81,2.78-3.81,5.37v4.57a.76.76,0,0,1-.86.86h-.81a.77.77,0,0,1-.85-.86Z"/><path class="cls-3" d="M308.72,133.19h.68v-.34a2.56,2.56,0,0,0-2.86-2.88,6.19,6.19,0,0,0-3,.83.79.79,0,0,1-1.16-.31l-.21-.36a.78.78,0,0,1,.28-1.17,8.66,8.66,0,0,1,4.26-1.11c3.27,0,5.16,1.81,5.16,5.13v7.45a.77.77,0,0,1-.85.86h-.65a.77.77,0,0,1-.86-.86v-.78a3.52,3.52,0,0,1,.08-.8h-.05a4.87,4.87,0,0,1-4.28,2.75c-2.31,0-4.42-1.43-4.42-3.89C300.88,133.63,306,133.19,308.72,133.19Zm-2.85,6.41c2.2,0,3.55-2.23,3.55-4.18v-.57h-.67c-1.85,0-5.32.16-5.32,2.65A2.2,2.2,0,0,0,305.87,139.6Z"/><path class="cls-3" d="M332,122.66a10.08,10.08,0,0,1,6.07,1.89.81.81,0,0,1,.15,1.19l-.33.52a.77.77,0,0,1-1.2.21,8.23,8.23,0,0,0-4.59-1.45c-4.25,0-6.77,3.11-6.77,7s2.57,7.24,6.8,7.24a8.25,8.25,0,0,0,5-1.79.75.75,0,0,1,1.19.1l.39.52a.79.79,0,0,1-.13,1.19A10.1,10.1,0,0,1,332,141.6c-5.66,0-9.37-4.21-9.37-9.58A9,9,0,0,1,332,122.66Z"/><path class="cls-3" d="M341.36,124.68v-.86a.76.76,0,0,1,.86-.85h.88a.76.76,0,0,1,.86.85v.86a.78.78,0,0,1-.86.86h-.88A.77.77,0,0,1,341.36,124.68Zm0,4.33a.76.76,0,0,1,.85-.85h.81a.75.75,0,0,1,.85.85v11.42a.76.76,0,0,1-.85.86h-.81a.77.77,0,0,1-.85-.86Z"/><path class="cls-3" d="M360.78,127.85a6.88,6.88,0,1,1-7.06,6.85A6.84,6.84,0,0,1,360.78,127.85Zm0,11.57a4.7,4.7,0,1,0-4.51-4.72A4.54,4.54,0,0,0,360.78,139.42Z"/><path class="cls-3" d="M376,127.85a4.47,4.47,0,0,1,4.08,2.25h.05a4.87,4.87,0,0,1-.08-.88v-5.4a.76.76,0,0,1,.86-.85h.8a.76.76,0,0,1,.86.85v16.61a.76.76,0,0,1-.86.86h-.67a.75.75,0,0,1-.86-.81v-.75a4.26,4.26,0,0,1,.05-.65h-.05a4.69,4.69,0,0,1-4.33,2.52c-3.56,0-5.79-2.8-5.79-6.88S372.54,127.85,376,127.85Zm.34,11.57c1.95,0,3.79-1.38,3.79-4.72,0-2.34-1.22-4.65-3.74-4.65-2,0-3.76,1.69-3.76,4.67S374.17,139.42,376.35,139.42Z"/><path class="cls-3" d="M386,129a.76.76,0,0,1,.86-.85h.6c.57,0,.85.28.85.72v.78a4.89,4.89,0,0,1-.05.7h.05a4.76,4.76,0,0,1,4.41-2.51c3.53,0,5.76,2.8,5.76,6.87s-2.51,6.88-5.94,6.88a4.49,4.49,0,0,1-4.07-2.34h-.05a8.56,8.56,0,0,1,.07,1.14v5.22a.75.75,0,0,1-.83.86h-.8a.76.76,0,0,1-.86-.86Zm6.15,10.41c2.08,0,3.79-1.69,3.79-4.67s-1.53-4.7-3.71-4.7c-2,0-3.79,1.38-3.79,4.72C388.44,137.11,389.74,139.42,392.15,139.42Z"/><path class="cls-3" d="M407.75,127.85a6.88,6.88,0,1,1-7.06,6.85A6.84,6.84,0,0,1,407.75,127.85Zm0,11.57a4.7,4.7,0,1,0-4.52-4.72A4.53,4.53,0,0,0,407.75,139.42Z"/><path class="cls-3" d="M416.15,129.12c-.18-.6.1-1,.73-1h.85a.88.88,0,0,1,1,.72l2.57,8.49c.18.67.31,1.4.31,1.4h.05s.16-.73.37-1.4l2.64-8.46a.87.87,0,0,1,.94-.73h.8a.89.89,0,0,1,1,.73l2.65,8.46c.18.67.34,1.4.34,1.4h.05s.13-.73.33-1.4l2.57-8.49a.85.85,0,0,1,.94-.72h.85c.63,0,.91.36.73,1l-3.71,11.44a.91.91,0,0,1-1,.73h-1.27a.89.89,0,0,1-1-.73l-2.52-7.71a10.68,10.68,0,0,1-.36-1.42H426a14.2,14.2,0,0,1-.39,1.42l-2.49,7.71a.91.91,0,0,1-1,.73h-1.3a.91.91,0,0,1-1-.73Z"/><path class="cls-3" d="M438.38,124.68v-.86a.76.76,0,0,1,.86-.85h.88a.77.77,0,0,1,.86.85v.86a.78.78,0,0,1-.86.86h-.88A.77.77,0,0,1,438.38,124.68Zm0,4.33a.76.76,0,0,1,.85-.85h.81a.75.75,0,0,1,.85.85v11.42a.76.76,0,0,1-.85.86h-.81a.77.77,0,0,1-.85-.86Z"/><path class="cls-3" d="M451.64,133.19h.67v-.34a2.55,2.55,0,0,0-2.85-2.88,6.19,6.19,0,0,0-3,.83.8.8,0,0,1-1.17-.31l-.2-.36a.78.78,0,0,1,.28-1.17,8.66,8.66,0,0,1,4.26-1.11c3.27,0,5.16,1.81,5.16,5.13v7.45a.77.77,0,0,1-.86.86h-.64a.77.77,0,0,1-.86-.86v-.78a3.52,3.52,0,0,1,.08-.8h-.05a4.88,4.88,0,0,1-4.29,2.75c-2.3,0-4.41-1.43-4.41-3.89C443.8,133.63,448.91,133.19,451.64,133.19Zm-2.85,6.41c2.2,0,3.55-2.23,3.55-4.18v-.57h-.67c-1.85,0-5.32.16-5.32,2.65A2.2,2.2,0,0,0,448.79,139.6Z"/><path class="cls-3" d="M463.61,127.85a4.47,4.47,0,0,1,4.08,2.25h.05a4.87,4.87,0,0,1-.08-.88v-5.4a.75.75,0,0,1,.86-.85h.8a.76.76,0,0,1,.86.85v16.61a.76.76,0,0,1-.86.86h-.67c-.58,0-.86-.29-.86-.81v-.75a4.26,4.26,0,0,1,0-.65h0a4.71,4.71,0,0,1-4.33,2.52c-3.56,0-5.79-2.8-5.79-6.88S460.13,127.85,463.61,127.85Zm.34,11.57c1.94,0,3.79-1.38,3.79-4.72,0-2.34-1.22-4.65-3.74-4.65-2.05,0-3.76,1.69-3.76,4.67S461.77,139.42,464,139.42Z"/><path class="cls-3" d="M480.38,133.19h.67v-.34A2.56,2.56,0,0,0,478.2,130a6.19,6.19,0,0,0-3,.83.8.8,0,0,1-1.17-.31l-.21-.36a.78.78,0,0,1,.29-1.17,8.65,8.65,0,0,1,4.25-1.11c3.27,0,5.17,1.81,5.17,5.13v7.45a.77.77,0,0,1-.86.86h-.65a.77.77,0,0,1-.85-.86v-.78a4,4,0,0,1,.07-.8h0A4.87,4.87,0,0,1,477,141.6c-2.31,0-4.41-1.43-4.41-3.89C472.54,133.63,477.65,133.19,480.38,133.19Zm-2.86,6.41c2.21,0,3.56-2.23,3.56-4.18v-.57h-.68c-1.84,0-5.32.16-5.32,2.65A2.2,2.2,0,0,0,477.52,139.6Z"/></g></g></svg>